<svg width="43" height="39" viewBox="0 0 43 39" fill="none" xmlns="http://www.w3.org/2000/svg">
<path d="M18.6125 8.24993L19.625 7.14368V13.8749C19.625 14.3722 19.8225 14.8491 20.1742 15.2008C20.5258 15.5524 21.0027 15.7499 21.5 15.7499C21.9973 15.7499 22.4742 15.5524 22.8258 15.2008C23.1775 14.8491 23.375 14.3722 23.375 13.8749V7.14368L24.3875 8.17493C24.5577 8.36716 24.7656 8.52238 24.9982 8.63099C25.2309 8.73959 25.4833 8.79926 25.74 8.80629C25.9966 8.81332 26.252 8.76757 26.4902 8.67187C26.7285 8.57616 26.9445 8.43255 27.125 8.24993C27.3007 8.07562 27.4402 7.86824 27.5354 7.63976C27.6306 7.41127 27.6796 7.1662 27.6796 6.91868C27.6796 6.67115 27.6306 6.42608 27.5354 6.1976C27.4402 5.96911 27.3007 5.76173 27.125 5.58743L22.8313 1.29368C22.6529 1.12298 22.4427 0.989167 22.2125 0.899928C21.756 0.712394 21.244 0.712394 20.7875 0.899928C20.5573 0.989167 20.3471 1.12298 20.1687 1.29368L15.875 5.51243C15.512 5.87544 15.308 6.3678 15.308 6.88118C15.308 7.39456 15.512 7.88691 15.875 8.24993C16.238 8.61294 16.7304 8.81688 17.2437 8.81688C17.7571 8.81688 18.2495 8.61294 18.6125 8.24993V8.24993ZM21.5 19.4999C20.3875 19.4999 19.2999 19.8298 18.3749 20.4479C17.4499 21.066 16.7289 21.9445 16.3032 22.9723C15.8774 24.0002 15.766 25.1312 15.9831 26.2223C16.2001 27.3135 16.7359 28.3157 17.5225 29.1024C18.3092 29.8891 19.3115 30.4248 20.4026 30.6418C21.4938 30.8589 22.6248 30.7475 23.6526 30.3217C24.6804 29.896 25.5589 29.175 26.177 28.25C26.7951 27.325 27.125 26.2374 27.125 25.1249C27.125 23.6331 26.5324 22.2023 25.4775 21.1474C24.4226 20.0926 22.9918 19.4999 21.5 19.4999ZM21.5 26.9999C21.1292 26.9999 20.7666 26.89 20.4583 26.6839C20.15 26.4779 19.9096 26.1851 19.7677 25.8425C19.6258 25.4998 19.5887 25.1228 19.661 24.7591C19.7334 24.3954 19.912 24.0613 20.1742 23.7991C20.4364 23.5369 20.7705 23.3583 21.1342 23.286C21.4979 23.2136 21.8749 23.2507 22.2175 23.3927C22.5601 23.5346 22.853 23.7749 23.059 24.0832C23.265 24.3916 23.375 24.7541 23.375 25.1249C23.375 25.6222 23.1775 26.0991 22.8258 26.4508C22.4742 26.8024 21.9973 26.9999 21.5 26.9999ZM8.375 25.1249C8.375 25.4958 8.48497 25.8583 8.69099 26.1666C8.89702 26.475 9.18986 26.7153 9.53247 26.8572C9.87508 26.9991 10.2521 27.0362 10.6158 26.9639C10.9795 26.8916 11.3136 26.713 11.5758 26.4508C11.838 26.1885 12.0166 25.8544 12.089 25.4907C12.1613 25.127 12.1242 24.75 11.9823 24.4074C11.8404 24.0648 11.6 23.7719 11.2917 23.5659C10.9834 23.3599 10.6208 23.2499 10.25 23.2499C9.75272 23.2499 9.27581 23.4475 8.92418 23.7991C8.57254 24.1507 8.375 24.6276 8.375 25.1249ZM34.625 25.1249C34.625 24.7541 34.515 24.3916 34.309 24.0832C34.103 23.7749 33.8101 23.5346 33.4675 23.3927C33.1249 23.2507 32.7479 23.2136 32.3842 23.286C32.0205 23.3583 31.6864 23.5369 31.4242 23.7991C31.1619 24.0613 30.9834 24.3954 30.911 24.7591C30.8387 25.1228 30.8758 25.4998 31.0177 25.8425C31.1596 26.1851 31.4 26.4779 31.7083 26.6839C32.0166 26.89 32.3792 26.9999 32.75 26.9999C33.2473 26.9999 33.7242 26.8024 34.0758 26.4508C34.4275 26.0991 34.625 25.6222 34.625 25.1249ZM36.5 11.9999H29C28.5027 11.9999 28.0258 12.1975 27.6742 12.5491C27.3225 12.9007 27.125 13.3776 27.125 13.8749C27.125 14.3722 27.3225 14.8491 27.6742 15.2008C28.0258 15.5524 28.5027 15.7499 29 15.7499H36.5C36.9973 15.7499 37.4742 15.9475 37.8258 16.2991C38.1775 16.6507 38.375 17.1276 38.375 17.6249V32.6249C38.375 33.1222 38.1775 33.5991 37.8258 33.9508C37.4742 34.3024 36.9973 34.4999 36.5 34.4999H6.5C6.00272 34.4999 5.52581 34.3024 5.17417 33.9508C4.82254 33.5991 4.625 33.1222 4.625 32.6249V17.6249C4.625 17.1276 4.82254 16.6507 5.17417 16.2991C5.52581 15.9475 6.00272 15.7499 6.5 15.7499H14C14.4973 15.7499 14.9742 15.5524 15.3258 15.2008C15.6775 14.8491 15.875 14.3722 15.875 13.8749C15.875 13.3776 15.6775 12.9007 15.3258 12.5491C14.9742 12.1975 14.4973 11.9999 14 11.9999H6.5C5.00816 11.9999 3.57742 12.5926 2.52252 13.6475C1.46763 14.7023 0.875 16.1331 0.875 17.6249V32.6249C0.875 34.1168 1.46763 35.5475 2.52252 36.6024C3.57742 37.6573 5.00816 38.2499 6.5 38.2499H36.5C37.9918 38.2499 39.4226 37.6573 40.4775 36.6024C41.5324 35.5475 42.125 34.1168 42.125 32.6249V17.6249C42.125 16.1331 41.5324 14.7023 40.4775 13.6475C39.4226 12.5926 37.9918 11.9999 36.5 11.9999Z" fill="#165A95"/>
</svg>
