<svg width="44" height="34" viewBox="0 0 44 34" fill="none" xmlns="http://www.w3.org/2000/svg">
<path d="M42.7705 12.2292L40.6872 11.0834L21.9372 0.666748H21.708C21.5803 0.612745 21.4477 0.570894 21.3122 0.541748H20.9163H20.5413C20.399 0.570913 20.2595 0.612746 20.1247 0.666748H19.8955L1.1455 11.0834C0.824877 11.2651 0.558193 11.5286 0.372653 11.847C0.187112 12.1654 0.0893555 12.5274 0.0893555 12.8959C0.0893555 13.2644 0.187112 13.6264 0.372653 13.9448C0.558193 14.2632 0.824877 14.5267 1.1455 14.7084L6.333 17.5834V27.4584C6.333 29.116 6.99148 30.7057 8.16358 31.8778C9.33568 33.0499 10.9254 33.7084 12.583 33.7084H29.2497C30.9073 33.7084 32.497 33.0499 33.6691 31.8778C34.8412 30.7057 35.4997 29.116 35.4997 27.4584V17.5834L39.6663 15.2501V21.2084C39.6663 21.7609 39.8858 22.2909 40.2765 22.6816C40.6672 23.0723 41.1971 23.2917 41.7497 23.2917C42.3022 23.2917 42.8321 23.0723 43.2228 22.6816C43.6135 22.2909 43.833 21.7609 43.833 21.2084V14.0417C43.8324 13.6726 43.7336 13.3102 43.547 12.9918C43.3603 12.6733 43.0923 12.4101 42.7705 12.2292V12.2292ZM31.333 27.4584C31.333 28.0109 31.1135 28.5409 30.7228 28.9316C30.3321 29.3223 29.8022 29.5417 29.2497 29.5417H12.583C12.0305 29.5417 11.5006 29.3223 11.1099 28.9316C10.7192 28.5409 10.4997 28.0109 10.4997 27.4584V19.8959L19.8955 25.1042L20.208 25.2292H20.3955C20.5684 25.251 20.7434 25.251 20.9163 25.2292C21.0893 25.251 21.2642 25.251 21.4372 25.2292H21.6247C21.7353 25.2059 21.841 25.1636 21.9372 25.1042L31.333 19.8959V27.4584ZM20.9163 20.9167L6.458 12.8751L20.9163 4.83341L35.3747 12.8751L20.9163 20.9167Z" fill="#165A95"/>
</svg>
