<svg width="44" height="34" viewBox="0 0 44 34" fill="none" xmlns="http://www.w3.org/2000/svg">
<path d="M22.5751 17.4216C23.5978 16.5363 24.4181 15.4414 24.9803 14.2112C25.5425 12.981 25.8334 11.6442 25.8334 10.2916C25.8334 7.74993 24.8237 5.31237 23.0265 3.51515C21.2293 1.71792 18.7917 0.708252 16.2501 0.708252C13.7084 0.708252 11.2709 1.71792 9.47364 3.51515C7.67642 5.31237 6.66675 7.74993 6.66675 10.2916C6.66673 11.6442 6.9577 12.981 7.51991 14.2112C8.08211 15.4414 8.90239 16.5363 9.92508 17.4216C7.24202 18.6365 4.96564 20.5985 3.36813 23.073C1.77061 25.5474 0.919569 28.4296 0.916748 31.3749C0.916748 31.8832 1.11868 32.3708 1.47813 32.7302C1.83757 33.0897 2.32508 33.2916 2.83341 33.2916C3.34175 33.2916 3.82926 33.0897 4.1887 32.7302C4.54815 32.3708 4.75008 31.8832 4.75008 31.3749C4.75008 28.3249 5.96169 25.3999 8.11835 23.2432C10.275 21.0865 13.2001 19.8749 16.2501 19.8749C19.3001 19.8749 22.2251 21.0865 24.3818 23.2432C26.5385 25.3999 27.7501 28.3249 27.7501 31.3749C27.7501 31.8832 27.952 32.3708 28.3115 32.7302C28.6709 33.0897 29.1584 33.2916 29.6667 33.2916C30.1751 33.2916 30.6626 33.0897 31.022 32.7302C31.3815 32.3708 31.5834 31.8832 31.5834 31.3749C31.5806 28.4296 30.7295 25.5474 29.132 23.073C27.5345 20.5985 25.2581 18.6365 22.5751 17.4216V17.4216ZM16.2501 16.0416C15.1128 16.0416 14.0011 15.7044 13.0556 15.0725C12.11 14.4407 11.373 13.5427 10.9378 12.492C10.5026 11.4413 10.3887 10.2852 10.6106 9.16982C10.8324 8.05443 11.3801 7.02987 12.1842 6.22572C12.9884 5.42157 14.0129 4.87394 15.1283 4.65207C16.2437 4.43021 17.3998 4.54407 18.4505 4.97928C19.5012 5.41448 20.3992 6.15147 21.031 7.09706C21.6628 8.04264 22.0001 9.15434 22.0001 10.2916C22.0001 11.8166 21.3943 13.2791 20.3159 14.3574C19.2376 15.4358 17.7751 16.0416 16.2501 16.0416ZM34.9184 16.6549C36.145 15.2736 36.9463 13.5673 37.2257 11.7412C37.5051 9.9152 37.2509 8.04731 36.4935 6.36242C35.7361 4.67753 34.5079 3.24744 32.9566 2.24431C31.4054 1.24118 29.5974 0.707758 27.7501 0.708252C27.2417 0.708252 26.7542 0.910186 26.3948 1.26963C26.0353 1.62908 25.8334 2.11659 25.8334 2.62492C25.8334 3.13325 26.0353 3.62076 26.3948 3.98021C26.7542 4.33965 27.2417 4.54159 27.7501 4.54159C29.2751 4.54159 30.7376 5.14739 31.8159 6.22572C32.8943 7.30406 33.5001 8.76659 33.5001 10.2916C33.4974 11.2983 33.2304 12.2866 32.7259 13.1578C32.2213 14.029 31.4969 14.7524 30.6251 15.2558C30.3409 15.4197 30.1036 15.6538 29.9358 15.9357C29.768 16.2176 29.6754 16.5378 29.6667 16.8658C29.6587 17.1911 29.7337 17.5132 29.8846 17.8016C30.0355 18.09 30.2574 18.3352 30.5292 18.5141L31.2767 19.0124L31.5259 19.1466C33.8363 20.2424 35.7853 21.9756 37.1436 24.142C38.5019 26.3085 39.2128 28.818 39.1926 31.3749C39.1926 31.8832 39.3945 32.3708 39.754 32.7302C40.1134 33.0897 40.6009 33.2916 41.1092 33.2916C41.6176 33.2916 42.1051 33.0897 42.4645 32.7302C42.824 32.3708 43.0259 31.8832 43.0259 31.3749C43.0416 28.4337 42.3049 25.5372 40.8859 22.9609C39.4669 20.3845 37.4127 18.2138 34.9184 16.6549V16.6549Z" fill="#165A95"/>
</svg>
