<svg width="1040" height="746" viewBox="0 0 1040 746" fill="none" xmlns="http://www.w3.org/2000/svg">
<circle cx="520" cy="520" r="359" stroke="#F2F2F2" stroke-width="2"/>
<circle cx="520" cy="520" r="379" stroke="#F2F2F2" stroke-width="2"/>
<circle cx="520" cy="520" r="399" stroke="#F2F2F2" stroke-width="2"/>
<circle cx="520" cy="520" r="419" stroke="#F2F2F2" stroke-width="2"/>
<circle cx="520" cy="520" r="439" stroke="#F2F2F2" stroke-width="2"/>
<circle cx="520" cy="520" r="459" stroke="#F2F2F2" stroke-width="2"/>
<circle cx="520" cy="520" r="479" stroke="#F2F2F2" stroke-width="2"/>
<circle cx="520" cy="520" r="499" stroke="#F2F2F2" stroke-width="2"/>
<circle cx="520" cy="520" r="519" stroke="#F2F2F2" stroke-width="2"/>
<circle opacity="0.8" cx="520" cy="520" r="519" stroke="#F2F2F2" stroke-width="2"/>
<circle cx="520" cy="520" r="339" stroke="#F2F2F2" stroke-width="2"/>
<circle cx="520" cy="520" r="319" stroke="#F2F2F2" stroke-width="2"/>
<circle cx="520" cy="520" r="299" stroke="#F2F2F2" stroke-width="2"/>
<circle cx="520" cy="520" r="279" stroke="#F2F2F2" stroke-width="2"/>
<circle cx="520" cy="520" r="259" stroke="#F2F2F2" stroke-width="2"/>
<circle cx="520" cy="520" r="239" stroke="#F2F2F2" stroke-width="2"/>
<circle cx="520" cy="520" r="219" stroke="#F2F2F2" stroke-width="2"/>
<circle cx="520" cy="520" r="199" stroke="#F2F2F2" stroke-width="2"/>
<circle cx="520" cy="520" r="179" stroke="#F2F2F2" stroke-width="2"/>
<circle cx="520" cy="520" r="159" stroke="#F2F2F2" stroke-width="2"/>
<circle cx="520" cy="520" r="139" stroke="#F2F2F2" stroke-width="2"/>
</svg>
